<svg xmlns="http://www.w3.org/2000/svg" version="1.1" xmlns:xlink="http://www.w3.org/1999/xlink" xmlns:svgjs="http://svgjs.dev/svgjs" width="1500" height="1500" viewBox="0 0 1500 1500"><rect width="1500" height="1500" fill="#ffffff"></rect><g transform="matrix(0.6666666666666666,0,0,0.6666666666666666,249.50000000000006,249.50052727270167)"><svg viewBox="0 0 280 280" data-background-color="#ffffff" preserveAspectRatio="xMidYMid meet" height="1500" width="1500" xmlns="http://www.w3.org/2000/svg" xmlns:xlink="http://www.w3.org/1999/xlink"><g id="tight-bounds" transform="matrix(1,0,0,1,0.13999999999998636,0.14014763635643135)"><svg viewBox="0 0 279.72 279.72" height="279.72" width="279.72"><g><svg viewBox="0 0 279.72 279.72" height="279.72" width="279.72"><g><svg viewBox="0 0 279.72 279.72" height="279.72" width="279.72"><g id="textblocktransform"><svg viewBox="0 0 279.72 279.72" height="279.72" width="279.72" id="textblock"><g><svg viewBox="0 0 279.72 279.72" height="279.72" width="279.72"><g transform="matrix(1,0,0,1,57.446704652707865,57.446704652707865)"><svg viewBox="0 0 164.8265906945843 164.8265906945843" height="164.8265906945843" width="164.8265906945843"><g id="icon-0"><circle r="82" cx="82.41329534729215" cy="82.41329534729215" fill="#000000" data-fill-palette-color="accent"></circle><svg xmlns="http://www.w3.org/2000/svg" xmlns:xlink="http://www.w3.org/1999/xlink" version="1.1" x="24.72398860418764" y="24.723988604187646" viewBox="562.373 562.374 875.2539999999999 875.252" enable-background="new 0 0 2000 2000" xml:space="preserve" height="115.378613486209" width="115.378613486209" class="icon-xg-0" data-fill-palette-color="quaternary" id="xg-0"><g fill="#ffffff" data-fill-palette-color="quaternary"><g fill="#ffffff" data-fill-palette-color="quaternary"><rect x="1224.227" y="759.744" fill="#ffffff" width="18.041" height="154.999" data-fill-palette-color="quaternary"></rect></g><g fill="#ffffff" data-fill-palette-color="quaternary"><rect x="1078.249" y="913.438" fill="#ffffff" width="164.019" height="18.045" data-fill-palette-color="quaternary"></rect></g><g fill="#ffffff" data-fill-palette-color="quaternary"><rect x="604.512" y="759.744" fill="#ffffff" width="168.537" height="18.045" data-fill-palette-color="quaternary"></rect></g><g fill="#ffffff" data-fill-palette-color="quaternary"><rect x="767.464" y="1068.514" fill="#ffffff" width="155" height="18.046" data-fill-palette-color="quaternary"></rect></g><g fill="#ffffff" data-fill-palette-color="quaternary"><polygon fill="#ffffff" points="604.515,767.386 604.515,612.383 622.556,612.387 622.556,767.388   " data-fill-palette-color="quaternary"></polygon></g><g fill="#ffffff" data-fill-palette-color="quaternary"><rect x="914.681" y="612.385" fill="#ffffff" width="18.046" height="155" data-fill-palette-color="quaternary"></rect></g><g fill="#ffffff" data-fill-palette-color="quaternary"><rect x="603.435" y="1077.54" fill="#ffffff" width="18.048" height="155" data-fill-palette-color="quaternary"></rect></g><g fill="#ffffff" data-fill-palette-color="quaternary"><rect x="759.513" y="1224.826" fill="#ffffff" width="18.043" height="155" data-fill-palette-color="quaternary"></rect></g><g fill="#ffffff" data-fill-palette-color="quaternary"><rect x="613.534" y="1378.521" fill="#ffffff" width="164.025" height="18.046" data-fill-palette-color="quaternary"></rect></g><polygon fill="#ffffff" points="817.47,872.38 717.451,872.379 717.459,972.541 817.472,972.543  " data-fill-palette-color="quaternary"></polygon><polygon fill="#ffffff" points="872.384,1027.455 872.384,1127.62 972.552,1127.617 972.544,1027.455  " data-fill-palette-color="quaternary"></polygon><polygon fill="#ffffff" points="972.544,872.38 872.384,872.38 872.384,972.541 972.552,972.543  " data-fill-palette-color="quaternary"></polygon><polygon fill="#ffffff" points="1127.616,972.541 1127.618,872.379 1027.459,872.38 1027.456,972.543  " data-fill-palette-color="quaternary"></polygon><polygon fill="#ffffff" points="717.455,1182.46 717.45,1282.623 817.47,1282.62 817.472,1182.458  " data-fill-palette-color="quaternary"></polygon><rect x="562.38" y="1027.455" fill="#ffffff" width="100.164" height="100.165" data-fill-palette-color="quaternary"></rect><rect x="562.381" y="1182.529" fill="#ffffff" width="100.163" height="100.02" data-fill-palette-color="quaternary"></rect><polygon fill="#ffffff" points="562.374,1337.464 562.379,1437.623 662.543,1437.626 662.538,1337.464  " data-fill-palette-color="quaternary"></polygon><rect x="1182.533" y="717.378" fill="#ffffff" width="100.018" height="100.161" data-fill-palette-color="quaternary"></rect><polygon fill="#ffffff" points="972.549,662.538 972.549,562.377 872.384,562.376 872.387,662.543  " data-fill-palette-color="quaternary"></polygon><rect x="1027.458" y="562.377" fill="#ffffff" width="100.162" height="100.165" data-fill-palette-color="quaternary"></rect><polygon fill="#ffffff" points="1437.627,662.543 1437.622,562.376 1337.46,562.374 1337.46,662.542  " data-fill-palette-color="quaternary"></polygon><rect x="1026.668" y="717.45" fill="#ffffff" width="100.167" height="100.018" data-fill-palette-color="quaternary"></rect><polygon fill="#ffffff" points="717.381,817.466 817.543,817.468 817.546,717.448 717.379,717.454  " data-fill-palette-color="quaternary"></polygon><rect x="562.379" y="562.376" fill="#ffffff" width="100.162" height="100.166" data-fill-palette-color="quaternary"></rect><rect x="717.45" y="562.376" fill="#ffffff" width="100.02" height="100.162" data-fill-palette-color="quaternary"></rect><polygon fill="#ffffff" points="662.543,872.38 562.381,872.379 562.373,972.543 662.544,972.543  " data-fill-palette-color="quaternary"></polygon><circle fill="#ffffff" cx="922.463" cy="767.386" r="50" data-fill-palette-color="quaternary"></circle><circle fill="#ffffff" cx="1232.541" cy="612.459" r="50" data-fill-palette-color="quaternary"></circle><path fill="#ffffff" d="M717.381 1077.534c-0.001-27.659 22.419-50.079 50.084-50.084 27.658 0.005 50.081 22.425 50.079 50.09 0 27.657-22.42 50.08-50.079 50.08C739.801 1127.62 717.379 1105.197 717.381 1077.534z" data-fill-palette-color="quaternary"></path></g></svg></g></svg></g><g id="text-0"><path d="M23.12 101.887v0l-0.703 1.951-9.347-3.368c-2.647-1.058-4.234-2.707-4.762-4.948v0c-0.214-0.957-0.177-1.839 0.114-2.644v0c0.635-1.763 1.888-2.665 3.76-2.706v0c0.759-0.017 1.558 0.125 2.397 0.427v0l8.565 3.086c1.327 0.478 1.983 1.14 1.97 1.984v0c-0.009 0.481-0.191 1.214-0.546 2.198v0l1.08 0.389 3.506-9.734c-0.634-0.228-1.058-0.139-1.271 0.269v0c-0.069 0.109-0.135 0.25-0.197 0.422v0l-0.778 2.158-10.733-3.867c-2.885-1.039-5.307-0.786-7.266 0.761v0c-0.881 0.727-1.513 1.622-1.896 2.685v0c-0.771 2.139-0.553 4.205 0.654 6.198v0c0.479 0.762 1.064 1.446 1.755 2.053v0l-4.388-1.391-2.262 6.278 1.08 0.389 1.17-3.248 13.634 4.912c1.327 0.478 1.983 1.14 1.97 1.985v0c-0.009 0.481-0.191 1.214-0.545 2.197v0l1.079 0.389 3.428-9.515c-0.634-0.228-1.058-0.139-1.271 0.269v0c-0.069 0.109-0.135 0.25-0.197 0.421z" fill="#000000" data-fill-palette-color="primary"></path><path d="M19.94 67.286v0c1.108-1.839 2.615-2.594 4.522-2.265v0c0.626 0.09 1.23 0.311 1.813 0.662v0c1.31 0.789 1.73 1.902 1.258 3.338v0c-0.262 0.735-0.769 1.699-1.521 2.892v0l-2.641 4.099c-2.938-1.95-4.312-4.121-4.124-6.514v0c0.049-0.789 0.281-1.527 0.693-2.212zM36.437 67.884v0l-0.952 0.766c1.442 2.122 1.677 4.287 0.707 6.495v0c-0.135 0.279-0.273 0.536-0.415 0.77v0c-1.662 2.759-4.347 3.505-8.056 2.237v0c-1.043-0.35-2.123-0.841-3.241-1.472v0l2.927-4.676c1.978-3.175 2.916-5.419 2.814-6.733v0c-0.096-1.024-0.63-1.83-1.604-2.416v0c-1.785-1.075-3.748-1.025-5.89 0.151v0c-1.538 0.826-2.814 2.081-3.827 3.764v0c-1.977 3.282-2.025 6.455-0.145 9.521v0c0.977 1.588 2.358 2.919 4.143 3.994v0c3.258 1.962 6.378 2.248 9.361 0.859v0c1.756-0.835 3.171-2.144 4.247-3.93v0c1.709-2.837 1.942-5.543 0.7-8.117v0c-0.24-0.431-0.496-0.835-0.769-1.213z" fill="#000000" data-fill-palette-color="primary"></path><path d="M32.689 51.185l2.406-2.461-0.821-0.802-6.364 6.51 0.82 0.802 1.45-1.483 15.034 6.663c1.7 0.76 2.884 0.995 3.551 0.705v0c0.326-0.153 0.66-0.404 1.003-0.756v0l0.641-0.654-5.821-11.285 8.47 3.968c1.636 0.785 2.776 1.065 3.418 0.84v0c0.306-0.132 0.641-0.384 1.004-0.755v0l0.515-0.527-8.239-15.842c-0.466-0.888-0.593-1.527-0.378-1.916v0c0.083-0.135 0.188-0.268 0.315-0.398v0c0.471-0.482 0.585-0.905 0.343-1.269v0c-0.091-0.128-0.201-0.256-0.332-0.383v0l-4.753 4.861 0.82 0.802 2.252-2.303 7.779 14.746-15.108-7.251 2.244-2.295-0.82-0.802-4.944 5.057 5.618 2.609 5.419 10.642z" fill="#000000" data-fill-palette-color="primary"></path><path d="M80.469 34.147v0c1.846-1.041 2.769-2.303 2.77-3.787v0c0.02-0.535-0.106-1.044-0.378-1.526v0c-0.631-1.118-1.99-1.621-4.077-1.507v0c-0.452 0.013-1.176 0.071-2.173 0.175v0c-2.698 0.33-4.635 0.295-5.811-0.106v0c-1.273-0.442-2.24-1.25-2.902-2.423v0c-1.038-1.839-0.751-3.709 0.86-5.609v0c0.732-0.872 1.649-1.619 2.748-2.239v0c1.76-0.993 3.494-1.476 5.201-1.448v0c-0.438-0.776-0.5-1.321-0.185-1.635v0c0.142-0.12 0.307-0.234 0.496-0.341v0l2.824 5.005-1.045 0.59c-1.441-2.426-3.504-2.897-6.188-1.416v0c-1.998 1.127-2.908 2.414-2.729 3.86v0c0.048 0.4 0.171 0.774 0.368 1.122v0c0.645 1.143 2.021 1.647 4.128 1.514v0c0.48-0.021 1.209-0.098 2.189-0.232v0c2.663-0.334 4.581-0.305 5.754 0.089v0c1.259 0.418 2.219 1.213 2.882 2.386v0c1.22 2.163 0.885 4.254-1.006 6.271v0c-0.715 0.79-1.591 1.478-2.63 2.064v0c-1.942 1.055-3.886 1.516-5.832 1.381v0c0.393 0.697 0.448 1.193 0.164 1.49v0c-0.148 0.124-0.329 0.246-0.542 0.367v0l-3.434-6.087 1.128-0.636c1.996 3.41 4.469 4.302 7.42 2.678z" fill="#000000" data-fill-palette-color="primary"></path><path d="M100.3 24.864v0l-2.15 0.829-6.617-17.167-6.649 2.563 0.413 1.071 3.437-1.325 5.212 13.523c0.507 1.316 0.37 2.286-0.411 2.911v0c-0.38 0.282-1.058 0.611-2.034 0.986v0l0.413 1.071 9.869-3.805c-0.242-0.629-0.591-0.889-1.045-0.781v0c-0.148 0.027-0.293 0.068-0.438 0.124zM89.638 2.06v0c-0.386-1.002-1.106-1.544-2.161-1.626v0c-0.396-0.013-0.751 0.041-1.065 0.163v0c-1.002 0.386-1.542 1.121-1.621 2.204v0c-0.023 0.37 0.031 0.725 0.163 1.065v0c0.409 1.061 1.165 1.608 2.268 1.641v0c0.36-0.003 0.697-0.066 1.011-0.187v0c1.002-0.386 1.526-1.114 1.571-2.185v0c0.023-0.37-0.033-0.728-0.166-1.075z" fill="#000000" data-fill-palette-color="primary"></path><path d="M114.077 21.664v0l-2.033 0.406-1.946-9.744c-0.461-2.813 0.131-5.024 1.777-6.633v0c0.709-0.678 1.483-1.101 2.323-1.269v0c1.837-0.367 3.257 0.24 4.26 1.822v0c0.407 0.641 0.698 1.399 0.872 2.273v0l1.783 8.928c0.276 1.383 0.049 2.287-0.682 2.712v0c-0.417 0.241-1.138 0.463-2.164 0.668v0l0.225 1.125 10.145-2.026c-0.132-0.661-0.428-0.977-0.887-0.95v0c-0.129-0.003-0.283 0.014-0.462 0.05v0l-2.25 0.449-2.234-11.188c-0.6-3.007-2.069-4.95-4.405-5.828v0c-1.077-0.379-2.17-0.458-3.278-0.237v0c-2.229 0.445-3.886 1.699-4.969 3.762v0c-0.405 0.803-0.689 1.658-0.851 2.563v0l-1.077-4.475-6.543 1.306 0.225 1.125 3.385-0.676 2.838 14.212c0.276 1.383 0.049 2.287-0.682 2.712v0c-0.417 0.241-1.138 0.463-2.164 0.668v0l0.225 1.125 9.918-1.98c-0.132-0.661-0.428-0.977-0.887-0.95v0c-0.129-0.003-0.283 0.014-0.462 0.05z" fill="#000000" data-fill-palette-color="primary"></path><path d="M136.363 10.166v0c0.033-4.75 1.358-7.635 3.976-8.655v0c0.675-0.241 1.378-0.359 2.107-0.354v0c3.403 0.024 5.367 2.181 5.891 6.472v0c0.086 0.737 0.126 1.552 0.12 2.442v0c-0.036 5.15-1.467 8.161-4.294 9.033v0c-0.548 0.144-1.114 0.213-1.696 0.209v0c-3.101-0.022-5.036-1.873-5.802-5.556v0c-0.21-1.075-0.31-2.272-0.302-3.591zM142.602 0v0c-2.947-0.02-5.406 0.976-7.378 2.991v0c-1.823 1.854-2.744 4.177-2.764 6.969v0c-0.027 3.859 1.363 6.767 4.17 8.723v0c1.704 1.177 3.598 1.772 5.682 1.787v0c2.947 0.02 5.392-1.005 7.336-3.075v0c1.795-1.889 2.703-4.261 2.723-7.118v0c0.027-3.859-1.381-6.735-4.224-8.628v0c-1.676-1.085-3.525-1.635-5.546-1.649z" fill="#000000" data-fill-palette-color="primary"></path><path d="M182.012 7.546v0c2.059 0.607 3.171 1.875 3.334 3.802v0c0.071 0.628 0.01 1.268-0.182 1.922v0c-0.433 1.467-1.403 2.154-2.912 2.06v0c-0.777-0.068-1.838-0.315-3.183-0.741v0l-4.633-1.519c1.144-3.335 2.898-5.214 5.261-5.636v0c0.776-0.152 1.548-0.114 2.315 0.112zM185.601 23.658v0l-0.981-0.728c-1.688 1.931-3.724 2.706-6.107 2.325v0c-0.304-0.06-0.587-0.129-0.849-0.206v0c-3.089-0.911-4.489-3.321-4.2-7.23v0c0.075-1.097 0.277-2.267 0.606-3.508v0l5.263 1.651c3.571 1.111 5.98 1.452 7.226 1.022v0c0.967-0.351 1.611-1.072 1.933-2.162v0c0.589-1.999 0.045-3.886-1.634-5.661v0c-1.188-1.279-2.725-2.197-4.609-2.753v0c-3.675-1.083-6.758-0.328-9.249 2.266v0c-1.289 1.346-2.229 3.019-2.818 5.018v0c-1.075 3.648-0.564 6.739 1.534 9.274v0c1.251 1.488 2.876 2.527 4.875 3.116v0c3.177 0.937 5.854 0.479 8.031-1.374v0c0.357-0.341 0.683-0.691 0.979-1.05z" fill="#000000" data-fill-palette-color="primary"></path><path d="M196.445 32.842v0l-1.829-0.976 4.679-8.765c1.428-2.467 3.289-3.8 5.582-4v0c0.978-0.074 1.845 0.09 2.6 0.493v0c1.653 0.882 2.365 2.252 2.137 4.111v0c-0.092 0.754-0.348 1.524-0.768 2.311v0l-4.287 8.031c-0.664 1.244-1.413 1.799-2.248 1.663v0c-0.475-0.079-1.174-0.364-2.096-0.856v0l-0.54 1.012 9.127 4.872c0.317-0.594 0.289-1.027-0.083-1.297v0c-0.098-0.084-0.228-0.169-0.389-0.255v0l-2.024-1.081 5.372-10.065c1.444-2.705 1.542-5.138 0.294-7.299v0c-0.592-0.976-1.387-1.73-2.384-2.263v0c-2.006-1.071-4.081-1.153-6.227-0.246v0c-0.823 0.364-1.584 0.845-2.285 1.441v0l2.008-4.142-5.886-3.142-0.541 1.012 3.046 1.626-6.825 12.785c-0.664 1.244-1.413 1.799-2.248 1.664v0c-0.475-0.079-1.174-0.364-2.096-0.857v0l-0.54 1.012 8.923 4.763c0.317-0.594 0.289-1.027-0.083-1.297v0c-0.098-0.084-0.228-0.169-0.389-0.255z" fill="#000000" data-fill-palette-color="primary"></path><path d="M231.145 34.675v0c1.661 1.361 2.191 2.961 1.59 4.801v0c-0.179 0.606-0.485 1.172-0.916 1.699v0c-0.97 1.183-2.131 1.438-3.484 0.764v0c-0.689-0.365-1.571-1.006-2.643-1.921v0l-3.676-3.203c2.352-2.626 4.699-3.674 7.04-3.144v0c0.774 0.163 1.47 0.497 2.089 1.004zM228.178 50.914v0l-0.62-1.053c-2.307 1.121-4.484 1.043-6.53-0.235v0c-0.257-0.174-0.491-0.348-0.702-0.521v0c-2.491-2.041-2.842-4.806-1.055-8.294v0c0.496-0.982 1.137-1.98 1.925-2.995v0l4.205 3.569c2.857 2.414 4.943 3.665 6.258 3.754v0c1.027 0.053 1.901-0.361 2.622-1.239v0c1.321-1.612 1.554-3.562 0.699-5.851v0c-0.597-1.641-1.655-3.084-3.175-4.329v0c-2.963-2.428-6.097-2.933-9.401-1.513v0c-1.712 0.738-3.228 1.913-4.549 3.525v0c-2.411 2.941-3.143 5.988-2.197 9.14v0c0.573 1.858 1.666 3.447 3.277 4.767v0c2.561 2.099 5.206 2.72 7.933 1.861v0c0.461-0.175 0.898-0.371 1.31-0.586z" fill="#000000" data-fill-palette-color="primary"></path><path d="M235.827 64.611v0l-2.155-2.519 6.957-5.954c2.116-1.811 4.376-2.613 6.778-2.407v0c0.923 0.097 1.546 0.307 1.869 0.631v0c0.342 0.4 0.359 1.013 0.051 1.84v0c-0.331 0.93-0.403 1.596-0.215 1.999v0c0.071 0.18 0.165 0.339 0.284 0.477v0c0.602 0.704 1.319 0.856 2.152 0.459v0c0.18-0.071 0.339-0.165 0.477-0.284v0c1.05-0.899 1.231-1.982 0.544-3.25v0c-0.148-0.27-0.314-0.512-0.496-0.725v0c-1.195-1.397-2.855-2.133-4.979-2.208v0c-0.998-0.033-1.976 0.098-2.934 0.391v0l3.339-3.107-4.332-5.062-0.871 0.746 2.237 2.615-11.011 9.423c-1.072 0.917-1.969 1.163-2.692 0.739v0c-0.418-0.251-0.965-0.772-1.64-1.561v0l-0.872 0.746 7.384 8.628c0.512-0.438 0.641-0.853 0.388-1.246v0c-0.056-0.109-0.144-0.233-0.263-0.371z" fill="#000000" data-fill-palette-color="primary"></path><path d="M253.661 69.775v0c3.507-2.024 6.043-1.755 7.609 0.807v0c1.494 2.606 0.523 4.953-2.913 7.041v0c-3.605 2.092-6.184 1.868-7.736-0.67v0c-1.512-2.636-0.499-5.029 3.04-7.178zM262.285 70.024v0c-1.416-2.366-3.306-3.79-5.672-4.272v0c-1.73-0.322-3.357-0.028-4.88 0.884v0c-1.999 1.196-3.074 3.164-3.225 5.903v0c-0.018 0.256-0.026 0.51-0.023 0.762v0c-1.009-1.686-2.362-2.307-4.059-1.864v0c-0.39 0.127-0.757 0.293-1.1 0.498v0c-1.373 0.862-2.073 2.05-2.1 3.563v0c-1.44-0.316-2.633-0.191-3.578 0.374v0c-1.451 0.868-2.017 2.368-1.698 4.5v0c0.169 1.362 0.726 2.832 1.669 4.41v0c2.392 3.998 4.946 6.059 7.662 6.184v0c0.908 0.029 1.733-0.178 2.474-0.621v0c2.258-1.351 2.78-3.43 1.567-6.236v0c-0.151-0.376-0.337-0.747-0.556-1.115v0l-4.134-7.277c-0.646-1.257-0.493-2.191 0.458-2.801v0c0.686-0.411 1.381-0.234 2.085 0.531v0c0.138 0.163 0.27 0.349 0.396 0.56v0l2.035 3.505c1.398 2.336 3.306 3.729 5.726 4.178v0c1.724 0.326 3.363 0.024 4.916-0.905v0c1.961-1.206 3.085-2.913 3.374-5.122v0c0.977-0.266 1.744-0.119 2.3 0.439v0c0.089 0.094 0.164 0.192 0.225 0.295v0c0.22 0.367 0.257 0.881 0.112 1.539v0c-0.086 0.444-0.057 0.786 0.087 1.028v0c0.549 0.563 1.198 0.69 1.945 0.381v0c0.813-0.486 1.137-1.195 0.972-2.127v0c-0.074-0.356-0.198-0.679-0.371-0.968v0c-0.739-1.234-1.887-1.904-3.447-2.009v0c-0.594-0.037-1.188 0.016-1.781 0.158v0c-0.102-1.55-0.561-3.008-1.379-4.375zM238.64 84.171v0c-1.556-2.601-1.853-4.656-0.891-6.163v0c0.259-0.4 0.572-0.71 0.939-0.93v0c0.725-0.401 1.623-0.513 2.694-0.336v0c0.209 0.595 0.416 1.064 0.621 1.406v0l3.559 6.113c1.152 1.993 1.389 3.408 0.713 4.246v0c-0.164 0.204-0.402 0.4-0.715 0.588v0c-1.156 0.692-2.646 0.115-4.469-1.73v0c-0.892-0.889-1.709-1.954-2.451-3.194z" fill="#000000" data-fill-palette-color="primary"></path><path d="M245.848 97.93v0c-0.164-0.463 0.059-0.933 0.672-1.411v0c0.753-0.625 1.181-1.12 1.282-1.484v0c0.08-0.319 0.059-0.65-0.063-0.994v0c-0.329-0.926-0.923-1.318-1.781-1.176v0c-0.128 0.016-0.236 0.039-0.321 0.069v0c-1.097 0.39-1.665 1.307-1.704 2.75v0c-0.027 0.657 0.072 1.304 0.298 1.938v0c0.813 2.288 2.918 3.77 6.316 4.446v0c1.371 0.295 2.949 0.482 4.735 0.563v0l18.098 0.795c0.908-0.002 1.483 0.15 1.727 0.458v0c0.123 0.18 0.232 0.402 0.326 0.666v0c0.204 0.575 0.481 0.849 0.829 0.823v0c0.2-0.004 0.428-0.052 0.686-0.144v0l-2.341-6.585-1.13 0.402 1.124 3.164-15.838-0.626 11.757-10.858 1.033 2.906 1.13-0.402-3.003-8.45-1.13 0.402 0.754 2.122-14.515 13.938c-4.39-0.264-7.138-0.997-8.243-2.197v0c-0.322-0.34-0.554-0.711-0.698-1.115z" fill="#000000" data-fill-palette-color="primary"></path><path d="M3.867 143.146c0-1.822 1.477-3.299 3.298-3.298 1.822 0 3.299 1.477 3.299 3.298 0 1.822-1.477 3.299-3.299 3.299-1.822 0-3.299-1.477-3.298-3.299z" fill="#000000" data-fill-palette-color="primary"></path><path d="M268.832 143.146c0-1.822 1.477-3.299 3.299-3.298 1.822 0 3.299 1.477 3.298 3.298 0 1.822-1.477 3.299-3.298 3.299-1.822 0-3.299-1.477-3.299-3.299z" fill="#000000" data-fill-palette-color="primary"></path></g><g id="text-1"><path d="M9.67 181.88v0l-0.205-0.74 5.975-1.655-0.644-2.323-0.375 0.104 0.331 1.197-4.706 1.304c-0.46 0.127-0.78 0.049-0.961-0.237v0c-0.082-0.138-0.169-0.375-0.263-0.713v0l-0.375 0.104 0.952 3.438c0.216-0.06 0.314-0.167 0.293-0.321v0c0-0.051-0.007-0.104-0.022-0.158zM17.668 179.054v0c0.352-0.097 0.56-0.319 0.624-0.665v0c0.02-0.137 0.016-0.259-0.014-0.367v0c-0.097-0.352-0.329-0.557-0.695-0.616v0c-0.121-0.017-0.243-0.009-0.364 0.025v0c-0.365 0.101-0.574 0.334-0.626 0.697v0c-0.009 0.126 0.002 0.243 0.032 0.352v0c0.096 0.345 0.325 0.543 0.689 0.595v0c0.121 0.017 0.239 0.01 0.354-0.021z" fill="#000000" data-fill-palette-color="primary"></path><path d="M11.335 186.991v0l-0.226-0.668 3.169-1.075c0.922-0.276 1.69-0.173 2.305 0.306v0c0.254 0.203 0.428 0.444 0.523 0.723v0c0.201 0.591 0.059 1.091-0.425 1.5v0c-0.197 0.163-0.438 0.293-0.723 0.39v0l-2.91 0.988c-0.452 0.153-0.764 0.118-0.936-0.105v0c-0.096-0.13-0.201-0.362-0.313-0.694v0l-0.369 0.126 1.12 3.298c0.213-0.072 0.304-0.185 0.274-0.337v0c0-0.044-0.011-0.096-0.031-0.156v0l-0.247-0.728 3.638-1.235c0.983-0.334 1.569-0.911 1.758-1.73v0c0.08-0.375 0.058-0.746-0.066-1.111v0c-0.246-0.724-0.737-1.221-1.473-1.49v0c-0.287-0.103-0.584-0.161-0.893-0.175v0l1.445-0.557-0.724-2.133-0.369 0.125 0.376 1.107-4.625 1.569c-0.452 0.153-0.765 0.115-0.939-0.114v0c-0.096-0.13-0.201-0.362-0.313-0.694v0l-0.369 0.125 1.096 3.229c0.213-0.072 0.304-0.185 0.275-0.338v0c0-0.044-0.009-0.093-0.028-0.146z" fill="#000000" data-fill-palette-color="primary"></path><path d="M16.853 197.859l-1.469 0.744 0.862 2.046c0.207-0.087 0.29-0.206 0.25-0.356v0c-0.003-0.044-0.017-0.095-0.042-0.154v0l-0.298-0.708 8.921-3.79-1.025-2.435-0.359 0.151 0.572 1.358-3.492 1.47c0.321-0.683 0.316-1.42-0.016-2.208v0c-0.441-1.048-1.24-1.644-2.398-1.789v0c-0.712-0.081-1.423 0.028-2.134 0.328v0c-1.183 0.498-1.89 1.234-2.12 2.206v0c-0.12 0.546-0.075 1.071 0.137 1.575v0c0.455 1.027 1.325 1.547 2.611 1.562zM16.9 193.659v0c1.345-0.566 2.371-0.572 3.077-0.016v0c0.221 0.181 0.389 0.407 0.502 0.679v0c0.294 0.698 0.132 1.353-0.486 1.963v0c-0.333 0.33-0.771 0.61-1.314 0.839v0c-1.138 0.479-2.087 0.54-2.847 0.183v0c-0.406-0.187-0.691-0.474-0.854-0.863v0c-0.329-0.782-0.066-1.495 0.79-2.137v0c0.308-0.244 0.686-0.46 1.132-0.648z" fill="#000000" data-fill-palette-color="primary"></path><path d="M24.287 202.567v0c0.323 0.646 0.265 1.213-0.174 1.699v0c-0.138 0.163-0.308 0.295-0.508 0.395v0c-0.464 0.232-0.858 0.151-1.182-0.245v0c-0.16-0.21-0.344-0.53-0.55-0.96v0l-0.697-1.487c1.092-0.483 1.963-0.483 2.612 0v0c0.213 0.16 0.38 0.359 0.499 0.598zM21.133 207.156v0l-0.037-0.405c-0.866 0.025-1.527-0.3-1.982-0.975v0c-0.053-0.091-0.1-0.177-0.141-0.259v0c-0.486-0.973-0.215-1.873 0.815-2.701v0c0.286-0.229 0.62-0.447 1.002-0.654v0l0.805 1.68c0.546 1.139 1.015 1.811 1.407 2.015v0c0.314 0.157 0.64 0.151 0.979-0.019v0c0.628-0.314 0.968-0.88 1.022-1.699v0c0.041-0.593-0.086-1.185-0.382-1.775v0c-0.577-1.155-1.472-1.743-2.682-1.765v0c-0.631-0.006-1.26 0.147-1.888 0.461v0c-1.149 0.574-1.793 1.41-1.934 2.509v0c-0.082 0.653 0.034 1.293 0.348 1.92v0c0.502 1.004 1.231 1.561 2.188 1.671v0c0.169 0.009 0.329 0.008 0.48-0.004z" fill="#000000" data-fill-palette-color="primary"></path><path d="M20.359 213.913l-0.553-0.945 2.77-1.622c-0.143 0.742-0.042 1.448 0.3 2.117v0c0.465 0.793 1.153 1.281 2.064 1.462v0c0.886 0.18 1.774 0.01 2.665-0.512v0c1.017-0.596 1.624-1.329 1.821-2.201v0c0.127-0.603 0.025-1.186-0.305-1.748v0c-0.507-0.866-1.229-1.313-2.164-1.343v0c-0.242 0.003-0.481 0.026-0.718 0.067v0l1.416-0.915-1.133-1.934-0.336 0.197 0.59 1.008-6.756 3.957c-0.412 0.241-0.724 0.27-0.938 0.086v0c-0.124-0.114-0.275-0.323-0.452-0.626v0l-0.336 0.197 1.92 3.279c0.194-0.113 0.261-0.242 0.201-0.386v0c-0.009-0.043-0.028-0.089-0.056-0.138zM28.335 210.351v0c0.454 0.775 0.254 1.551-0.6 2.327v0c-0.255 0.231-0.567 0.454-0.937 0.671v0c-1.308 0.766-2.343 0.901-3.105 0.404v0c-0.217-0.149-0.397-0.345-0.539-0.587v0c-0.401-0.684-0.317-1.367 0.251-2.05v0c0.291-0.35 0.685-0.67 1.181-0.96v0c1.162-0.681 2.143-0.853 2.943-0.516v0c0.35 0.153 0.619 0.39 0.806 0.711z" fill="#000000" data-fill-palette-color="primary"></path><path d="M32.981 217.207v0c0.405 0.598 0.422 1.168 0.05 1.708v0c-0.115 0.18-0.266 0.333-0.452 0.458v0c-0.43 0.291-0.831 0.262-1.203-0.087v0c-0.186-0.187-0.41-0.481-0.672-0.88v0l-0.886-1.383c1.019-0.622 1.882-0.736 2.59-0.343v0c0.233 0.131 0.423 0.306 0.573 0.527zM30.456 222.17v0l-0.09-0.396c-0.855 0.138-1.553-0.097-2.092-0.706v0c-0.065-0.083-0.123-0.163-0.174-0.238v0c-0.61-0.901-0.459-1.829 0.453-2.785v0c0.253-0.265 0.556-0.525 0.908-0.78v0l1.018 1.56c0.691 1.058 1.244 1.662 1.66 1.813v0c0.332 0.114 0.654 0.065 0.968-0.147v0c0.581-0.393 0.844-0.999 0.79-1.819v0c-0.037-0.593-0.241-1.163-0.611-1.709v0c-0.724-1.069-1.687-1.535-2.891-1.398v0c-0.626 0.076-1.23 0.311-1.811 0.705v0c-1.063 0.72-1.593 1.633-1.589 2.74v0c0.005 0.658 0.204 1.277 0.597 1.858v0c0.629 0.93 1.426 1.386 2.389 1.37v0c0.169-0.013 0.328-0.035 0.475-0.068z" fill="#000000" data-fill-palette-color="primary"></path><path d="M32.708 226.904v0l-0.434-0.556 2.637-2.061c0.779-0.564 1.538-0.721 2.278-0.469v0c0.307 0.108 0.551 0.278 0.732 0.509v0c0.384 0.492 0.416 1.011 0.093 1.557v0c-0.132 0.219-0.317 0.421-0.554 0.606v0l-2.422 1.892c-0.376 0.294-0.682 0.364-0.918 0.21v0c-0.134-0.091-0.309-0.275-0.525-0.552v0l-0.306 0.24 2.144 2.745c0.177-0.138 0.226-0.275 0.148-0.409v0c-0.015-0.042-0.042-0.088-0.081-0.138v0l-0.473-0.605 3.028-2.365c0.818-0.639 1.181-1.377 1.089-2.213v0c-0.048-0.381-0.191-0.723-0.429-1.027v0c-0.471-0.603-1.098-0.91-1.881-0.921v0c-0.305-0.002-0.605 0.041-0.901 0.129v0l1.181-1.002-1.387-1.775-0.307 0.239 0.72 0.921-3.849 3.006c-0.376 0.294-0.684 0.361-0.924 0.202v0c-0.134-0.091-0.309-0.275-0.525-0.552v0l-0.307 0.239 2.099 2.688c0.177-0.138 0.226-0.275 0.148-0.409v0c-0.015-0.042-0.04-0.085-0.074-0.13z" fill="#000000" data-fill-palette-color="primary"></path><path d="M41.499 235.345l-1.141 1.187 1.488 1.648c0.167-0.15 0.206-0.29 0.119-0.419v0c-0.018-0.041-0.048-0.084-0.09-0.131v0l-0.515-0.57 7.173-6.52-1.77-1.961-0.289 0.261 0.987 1.094-2.812 2.539c0.078-0.751-0.17-1.444-0.744-2.08v0c-0.762-0.844-1.713-1.143-2.852-0.898v0c-0.699 0.158-1.334 0.496-1.908 1.013v0c-0.953 0.861-1.378 1.788-1.274 2.782v0c0.066 0.555 0.283 1.035 0.649 1.441v0c0.768 0.819 1.761 1.024 2.979 0.614zM40.16 231.365v0c1.083-0.978 2.05-1.321 2.899-1.03v0c0.268 0.098 0.501 0.257 0.698 0.476v0c0.508 0.562 0.57 1.234 0.188 2.014v0c-0.205 0.422-0.527 0.83-0.964 1.225v0c-0.917 0.828-1.792 1.198-2.627 1.11v0c-0.445-0.043-0.808-0.22-1.091-0.532v0c-0.569-0.63-0.555-1.39 0.042-2.278v0c0.211-0.332 0.496-0.66 0.855-0.985z" fill="#000000" data-fill-palette-color="primary"></path><path d="M50.07 237.339v0c0.518 0.504 0.65 1.058 0.396 1.661v0c-0.077 0.2-0.193 0.38-0.35 0.541v0c-0.362 0.372-0.761 0.425-1.196 0.159v0c-0.22-0.146-0.499-0.387-0.836-0.725v0l-1.148-1.175c0.872-0.816 1.694-1.103 2.466-0.861v0c0.254 0.081 0.477 0.214 0.668 0.4zM48.606 242.711v0l-0.169-0.37c-0.809 0.309-1.54 0.22-2.192-0.266v0c-0.08-0.068-0.153-0.134-0.219-0.198v0c-0.78-0.758-0.82-1.698-0.122-2.819v0c0.194-0.31 0.438-0.626 0.731-0.949v0l1.314 1.322c0.891 0.895 1.555 1.375 1.993 1.437v0c0.348 0.045 0.654-0.069 0.918-0.34v0c0.489-0.503 0.624-1.15 0.404-1.941v0c-0.157-0.573-0.472-1.09-0.945-1.55v0c-0.926-0.9-1.964-1.161-3.115-0.781v0c-0.598 0.202-1.141 0.555-1.63 1.057v0c-0.895 0.921-1.228 1.923-0.999 3.006v0c0.138 0.643 0.459 1.209 0.962 1.699v0c0.805 0.782 1.677 1.068 2.617 0.856v0c0.163-0.047 0.314-0.101 0.452-0.163z" fill="#000000" data-fill-palette-color="primary"></path><path d="M51.772 246.888v0l-0.538-0.456 2.164-2.553c0.648-0.711 1.36-1.018 2.134-0.923v0c0.322 0.043 0.596 0.16 0.821 0.35v0c0.476 0.404 0.612 0.905 0.408 1.505v0c-0.085 0.241-0.225 0.477-0.42 0.707v0l-1.987 2.344c-0.308 0.364-0.594 0.495-0.856 0.392v0c-0.15-0.062-0.358-0.207-0.626-0.434v0l-0.251 0.297 2.657 2.253c0.145-0.171 0.166-0.315 0.062-0.431v0c-0.023-0.038-0.059-0.077-0.107-0.118v0l-0.586-0.497 2.484-2.931c0.671-0.792 0.877-1.588 0.616-2.388v0c-0.125-0.363-0.334-0.669-0.628-0.919v0c-0.583-0.494-1.26-0.668-2.029-0.519v0c-0.299 0.06-0.584 0.163-0.856 0.309v0l0.952-1.221-1.718-1.456-0.252 0.297 0.891 0.755-3.157 3.726c-0.308 0.364-0.597 0.492-0.864 0.385v0c-0.15-0.062-0.358-0.207-0.626-0.434v0l-0.252 0.297 2.602 2.205c0.145-0.171 0.166-0.315 0.061-0.431v0c-0.023-0.038-0.056-0.075-0.099-0.111z" fill="#000000" data-fill-palette-color="primary"></path><path d="M60.618 246.16l-0.233 0.312 0.876 0.656-2.617 3.497c-0.717 1.076-0.642 1.965 0.227 2.667v0c0.764 0.572 1.59 0.463 2.479-0.327v0c0.008-0.011 0.015-0.02 0.019-0.025v0l-0.287-0.32c-0.725 0.535-1.308 0.682-1.749 0.44v0c-0.431-0.349-0.421-0.837 0.03-1.463v0l2.825-3.775 1.93 1.444 0.233-0.312-1.929-1.444 1.078-1.441-1.123-0.433-0.882 1.18z" fill="#000000" data-fill-palette-color="primary"></path><path d="M67.198 258.464v0c0.603 0.385 1.125 0.46 1.567 0.226v0c0.16-0.081 0.291-0.201 0.392-0.362v0c0.23-0.361 0.164-0.844-0.198-1.45v0c-0.075-0.131-0.206-0.336-0.395-0.614v0c-0.527-0.752-0.826-1.334-0.896-1.745v0c-0.063-0.448 0.027-0.865 0.273-1.249v0c0.385-0.603 0.986-0.815 1.803-0.635v0c0.373 0.08 0.74 0.235 1.102 0.466v0c0.574 0.366 0.993 0.804 1.258 1.315v0c0.162-0.254 0.312-0.359 0.449-0.313v0c0.061 0.022 0.121 0.052 0.18 0.09v0l-1.042 1.632-0.337-0.215c0.492-0.81 0.307-1.498-0.555-2.065v0c-0.657-0.419-1.184-0.485-1.584-0.199v0c-0.115 0.076-0.209 0.171-0.28 0.283v0c-0.238 0.373-0.17 0.866 0.205 1.479v0c0.081 0.135 0.22 0.34 0.418 0.617v0c0.523 0.733 0.819 1.305 0.89 1.716v0c0.073 0.446-0.011 0.859-0.253 1.238v0c-0.453 0.71-1.131 0.943-2.033 0.7v0c-0.35-0.09-0.694-0.243-1.031-0.458v0c-0.619-0.412-1.067-0.918-1.341-1.518v0c-0.143 0.225-0.283 0.319-0.418 0.283v0c-0.057-0.028-0.118-0.063-0.183-0.104v0l1.269-1.988 0.363 0.232c-0.699 1.135-0.574 2.014 0.377 2.638z" fill="#000000" data-fill-palette-color="primary"></path><path d="M77.932 264.466v0l-0.683-0.375 2.986-5.433-2.13-1.171-0.188 0.342 1.116 0.613-1.612 2.933c-0.446 0.812-1.06 1.251-1.841 1.318v0c-0.347 0.034-0.658-0.026-0.935-0.178v0c-0.738-0.406-0.96-1.02-0.668-1.844v0c0.053-0.139 0.119-0.283 0.2-0.43v0l2.074-3.773-2.066-1.135-0.188 0.341 1.052 0.578-1.775 3.228c-0.846 1.553-0.626 2.69 0.659 3.412v0c0.676 0.372 1.385 0.401 2.125 0.088v0c0.275-0.121 0.534-0.279 0.777-0.474v0l-0.668 1.434 1.918 1.055c0.108-0.197 0.1-0.342-0.025-0.434v0c-0.03-0.033-0.073-0.064-0.128-0.095z" fill="#000000" data-fill-palette-color="primary"></path><path d="M81.836 269.585l-0.994-0.458 1.344-2.916c0.308 0.69 0.794 1.212 1.458 1.565v0c0.835 0.385 1.678 0.391 2.529 0.018v0c0.83-0.359 1.461-1.007 1.893-1.943v0c0.493-1.071 0.572-2.02 0.235-2.847v0c-0.241-0.567-0.658-0.987-1.251-1.261v0c-0.911-0.42-1.759-0.374-2.543 0.138v0c-0.196 0.141-0.38 0.296-0.55 0.465v0l0.638-1.561-2.036-0.938-0.163 0.354 1.061 0.489-3.278 7.111c-0.2 0.433-0.44 0.636-0.72 0.607v0c-0.167-0.023-0.41-0.108-0.729-0.255v0l-0.163 0.354 3.451 1.59c0.094-0.204 0.075-0.348-0.057-0.431v0c-0.032-0.03-0.074-0.057-0.125-0.081zM86.341 262.1v0c0.816 0.376 1.095 1.127 0.839 2.253v0c-0.077 0.335-0.205 0.697-0.384 1.086v0c-0.634 1.376-1.406 2.079-2.316 2.108v0c-0.264 0.002-0.523-0.056-0.778-0.173v0c-0.72-0.332-1.042-0.94-0.967-1.825v0c0.039-0.453 0.179-0.941 0.42-1.464v0c0.564-1.223 1.27-1.926 2.118-2.106v0c0.374-0.075 0.73-0.034 1.068 0.121z" fill="#000000" data-fill-palette-color="primary"></path><path d="M90.878 273.365l-1.024-0.387 1.134-3.003c0.356 0.667 0.877 1.152 1.564 1.457v0c0.86 0.325 1.701 0.271 2.525-0.161v0c0.802-0.417 1.386-1.108 1.75-2.073v0c0.416-1.103 0.427-2.055 0.032-2.856v0c-0.28-0.548-0.726-0.938-1.336-1.169v0c-0.939-0.354-1.781-0.249-2.528 0.318v0c-0.186 0.155-0.358 0.322-0.516 0.502v0l0.526-1.601-2.097-0.792-0.138 0.364 1.093 0.413-2.765 7.326c-0.169 0.446-0.394 0.665-0.675 0.656v0c-0.168-0.011-0.417-0.079-0.745-0.202v0l-0.138 0.364 3.555 1.342c0.079-0.21 0.05-0.352-0.087-0.426v0c-0.034-0.028-0.078-0.052-0.13-0.072zM94.841 265.58v0c0.84 0.317 1.172 1.046 0.996 2.187v0c-0.053 0.34-0.156 0.71-0.306 1.111v0c-0.535 1.418-1.255 2.173-2.161 2.266v0c-0.263 0.021-0.526-0.018-0.788-0.117v0c-0.742-0.28-1.106-0.864-1.094-1.752v0c0.007-0.455 0.112-0.952 0.315-1.49v0c0.476-1.26 1.13-2.011 1.963-2.251v0c0.368-0.101 0.726-0.086 1.075 0.046z" fill="#000000" data-fill-palette-color="primary"></path><path d="M100.808 273.668v0l-0.793-0.25 2.911-9.246-2.219-0.698-0.117 0.371 1.105 0.348-2.516 7.991c-0.143 0.455-0.356 0.686-0.637 0.693v0c-0.162 0-0.41-0.052-0.745-0.157v0l-0.117 0.371 3.383 1.065c0.067-0.214 0.031-0.354-0.11-0.421v0c-0.036-0.026-0.084-0.049-0.145-0.067z" fill="#000000" data-fill-palette-color="primary"></path><path d="M106.039 275.119v0l-0.742-0.2 1.621-5.984-2.327-0.63-0.102 0.376 1.199 0.324-1.277 4.714c-0.125 0.461-0.356 0.696-0.693 0.707v0c-0.16 0-0.409-0.045-0.747-0.138v0l-0.102 0.376 3.444 0.933c0.059-0.217 0.016-0.355-0.128-0.416v0c-0.044-0.026-0.093-0.047-0.147-0.062zM107.682 266.798v0c0.095-0.352 0.011-0.644-0.254-0.876v0c-0.107-0.087-0.215-0.145-0.323-0.175v0c-0.352-0.095-0.647-0.001-0.884 0.284v0c-0.077 0.096-0.132 0.204-0.165 0.326v0c-0.099 0.366-0.005 0.664 0.282 0.894v0c0.104 0.072 0.21 0.122 0.318 0.152v0c0.345 0.094 0.633-0.003 0.864-0.289v0c0.077-0.096 0.131-0.201 0.162-0.316z" fill="#000000" data-fill-palette-color="primary"></path><path d="M112.89 270.56v0c0.706 0.154 1.111 0.555 1.214 1.202v0c0.04 0.21 0.037 0.425-0.012 0.644v0c-0.111 0.507-0.421 0.763-0.932 0.766v0c-0.264-0.007-0.629-0.065-1.093-0.174v0l-1.595-0.391c0.309-1.153 0.855-1.831 1.639-2.034v0c0.259-0.066 0.518-0.07 0.779-0.013zM114.484 275.895v0l-0.339-0.225c-0.524 0.69-1.191 1.001-2.002 0.932v0c-0.104-0.016-0.201-0.033-0.29-0.053v0c-1.063-0.232-1.593-1.008-1.593-2.329v0c0.001-0.366 0.041-0.763 0.12-1.191v0l1.814 0.427c1.229 0.29 2.047 0.346 2.451 0.169v0c0.319-0.146 0.519-0.404 0.6-0.774v0c0.149-0.686-0.078-1.306-0.682-1.862v0c-0.436-0.404-0.976-0.676-1.621-0.816v0c-1.261-0.275-2.281 0.052-3.058 0.981v0c-0.401 0.487-0.676 1.073-0.825 1.759v0c-0.274 1.255-0.027 2.281 0.739 3.08v0c0.457 0.473 1.028 0.784 1.714 0.934v0c1.097 0.239 1.988 0.021 2.674-0.655v0c0.114-0.126 0.213-0.252 0.298-0.377z" fill="#000000" data-fill-palette-color="primary"></path><path d="M119.784 277.866v0l-1.102-0.173 0.479-3.047c0.146-0.929 0.551-1.629 1.214-2.1v0c0.256-0.18 0.461-0.265 0.615-0.255v0c0.173 0.027 0.313 0.18 0.418 0.46v0c0.122 0.31 0.249 0.497 0.381 0.561v0c0.059 0.031 0.12 0.051 0.182 0.06v0c0.305 0.048 0.522-0.067 0.651-0.345v0c0.031-0.059 0.051-0.12 0.06-0.182v0c0.072-0.457-0.12-0.775-0.574-0.953v0c-0.101-0.037-0.196-0.063-0.286-0.077v0c-0.61-0.096-1.198 0.078-1.766 0.522v0c-0.26 0.208-0.48 0.457-0.661 0.748v0l0.176-1.528-2.225-0.349-0.06 0.384 1.154 0.182-0.758 4.824c-0.074 0.471-0.253 0.731-0.538 0.779v0c-0.16 0.025-0.413 0.01-0.76-0.045v0l-0.06 0.384 3.785 0.595c0.035-0.222-0.022-0.355-0.172-0.4v0c-0.039-0.02-0.09-0.035-0.153-0.045z" fill="#000000" data-fill-palette-color="primary"></path><path d="M129.016 275.976v0c0.111-1.596 0.616-2.538 1.516-2.828v0c0.237-0.068 0.478-0.093 0.722-0.076v0c1.148 0.08 1.763 0.847 1.845 2.302v0c0.018 0.247 0.016 0.522-0.005 0.823v0c-0.121 1.736-0.668 2.721-1.641 2.956v0c-0.185 0.036-0.376 0.048-0.572 0.034v0c-1.043-0.073-1.654-0.738-1.834-1.996v0c-0.052-0.369-0.062-0.774-0.031-1.215zM131.334 272.687v0c-0.994-0.069-1.844 0.213-2.549 0.846v0c-0.653 0.588-1.012 1.35-1.077 2.288v0c-0.091 1.302 0.317 2.312 1.224 3.029v0c0.547 0.432 1.17 0.672 1.87 0.721v0c0.994 0.069 1.841-0.223 2.54-0.878v0c0.64-0.603 0.993-1.383 1.06-2.342v0c0.091-1.302-0.322-2.298-1.237-2.987v0c-0.542-0.403-1.152-0.629-1.831-0.677z" fill="#000000" data-fill-palette-color="primary"></path><path d="M139.754 279.328v0l-1.084-0.008 0.043-5.81 1.778 0.013 0.003-0.389-1.779-0.013 0.001-0.095c0.013-1.768 0.283-2.77 0.811-3.004v0c0.113-0.048 0.236-0.072 0.369-0.071v0c0.323 0.002 0.592 0.194 0.807 0.574v0c0.18 0.331 0.312 0.529 0.395 0.592v0c0.084 0.064 0.178 0.096 0.284 0.097v0c0.337 0.002 0.538-0.14 0.603-0.427v0c0.014-0.056 0.022-0.105 0.022-0.147v0c0.003-0.379-0.255-0.679-0.772-0.9v0c-0.301-0.114-0.637-0.173-1.01-0.176v0c-0.968-0.007-1.694 0.391-2.176 1.194v0c-0.327 0.552-0.493 1.252-0.5 2.102v0l-0.002 0.252-1.084-0.007-0.003 0.389 1.084 0.008-0.035 4.883c-0.003 0.477-0.139 0.76-0.406 0.85v0c-0.155 0.048-0.407 0.071-0.759 0.068v0l-0.002 0.389 3.799 0.028c0.002-0.225-0.075-0.348-0.229-0.37v0c-0.042-0.014-0.095-0.022-0.158-0.022z" fill="#000000" data-fill-palette-color="primary"></path><path d="M153.093 278.685v0l-0.766 0.066-0.53-6.177-2.402 0.207 0.034 0.388 1.237-0.107 0.418 4.866c0.041 0.475-0.095 0.776-0.408 0.901v0c-0.15 0.055-0.4 0.098-0.75 0.128v0l0.033 0.388 3.555-0.305c-0.019-0.224-0.107-0.339-0.262-0.348v0c-0.05-0.01-0.103-0.012-0.159-0.007zM151.781 270.304v0c-0.031-0.364-0.211-0.609-0.538-0.735v0c-0.131-0.045-0.252-0.063-0.364-0.053v0c-0.364 0.031-0.608 0.221-0.733 0.57v0c-0.039 0.116-0.054 0.237-0.042 0.363v0c0.032 0.378 0.223 0.625 0.571 0.743v0c0.122 0.032 0.24 0.043 0.351 0.033v0c0.357-0.031 0.594-0.22 0.712-0.568v0c0.039-0.116 0.054-0.234 0.043-0.353z" fill="#000000" data-fill-palette-color="primary"></path><path d="M158.422 277.986v0l-0.698 0.101-0.476-3.313c-0.102-0.956 0.14-1.693 0.725-2.21v0c0.246-0.213 0.515-0.34 0.807-0.381v0c0.618-0.089 1.084 0.142 1.396 0.692v0c0.124 0.223 0.208 0.484 0.251 0.783v0l0.437 3.042c0.068 0.472-0.024 0.773-0.275 0.901v0c-0.146 0.071-0.392 0.131-0.74 0.181v0l0.056 0.385 3.448-0.495c-0.032-0.222-0.126-0.333-0.281-0.332v0c-0.044-0.008-0.097-0.007-0.16 0.002v0l-0.76 0.109-0.546-3.803c-0.148-1.028-0.607-1.71-1.379-2.045v0c-0.354-0.148-0.723-0.194-1.104-0.139v0c-0.757 0.109-1.335 0.5-1.735 1.174v0c-0.154 0.263-0.266 0.545-0.336 0.846v0l-0.282-1.523-2.229 0.32 0.055 0.386 1.156-0.166 0.695 4.834c0.068 0.472-0.027 0.773-0.286 0.902v0c-0.146 0.071-0.392 0.131-0.739 0.18v0l0.055 0.386 3.376-0.485c-0.032-0.222-0.126-0.333-0.282-0.332v0c-0.044-0.008-0.093-0.008-0.149 0.001z" fill="#000000" data-fill-palette-color="primary"></path><path d="M170.118 274.557l0.462 1.58 2.17-0.471c-0.048-0.219-0.149-0.323-0.305-0.311v0c-0.044-0.005-0.097 0-0.158 0.013v0l-0.751 0.163-2.089-9.466-2.581 0.561 0.082 0.381 1.44-0.313 0.805 3.703c-0.613-0.441-1.338-0.571-2.175-0.39v0c-1.111 0.241-1.843 0.917-2.198 2.029v0c-0.21 0.685-0.233 1.404-0.069 2.158v0c0.273 1.255 0.866 2.084 1.779 2.489v0c0.514 0.219 1.039 0.27 1.574 0.154v0c1.093-0.259 1.764-1.019 2.014-2.28zM165.999 273.74v0c-0.31-1.426-0.127-2.435 0.548-3.027v0c0.219-0.184 0.472-0.307 0.76-0.37v0c0.741-0.161 1.354 0.119 1.841 0.839v0c0.264 0.388 0.458 0.87 0.583 1.445v0c0.262 1.207 0.148 2.151-0.343 2.832v0c-0.258 0.365-0.593 0.592-1.005 0.682v0c-0.83 0.18-1.482-0.209-1.955-1.169v0c-0.183-0.348-0.326-0.758-0.429-1.232z" fill="#000000" data-fill-palette-color="primary"></path><path d="M181.724 272.647v0l-0.747 0.221-1.753-5.946-2.332 0.688 0.11 0.373 1.221-0.36 0.947 3.21c0.262 0.888 0.142 1.633-0.361 2.235v0c-0.22 0.27-0.482 0.449-0.785 0.539v0c-0.808 0.238-1.401-0.037-1.779-0.825v0c-0.062-0.135-0.117-0.284-0.165-0.445v0l-1.217-4.129-2.262 0.667 0.11 0.373 1.151-0.339 1.042 3.533c0.507 1.694 1.469 2.339 2.887 1.936v0c0.74-0.218 1.26-0.701 1.559-1.447v0c0.107-0.28 0.178-0.575 0.211-0.885v0l0.547 1.484 2.1-0.619c-0.064-0.215-0.172-0.311-0.326-0.288v0c-0.044-0.002-0.097 0.007-0.158 0.024z" fill="#000000" data-fill-palette-color="primary"></path><path d="M186.285 271.182v0c0.673-0.244 1.051-0.612 1.133-1.105v0c0.033-0.176 0.018-0.353-0.047-0.531v0c-0.146-0.402-0.569-0.645-1.27-0.727v0c-0.149-0.021-0.392-0.041-0.728-0.061v0c-0.918-0.041-1.561-0.158-1.93-0.353v0c-0.394-0.223-0.669-0.549-0.824-0.978v0c-0.244-0.673-0.045-1.278 0.596-1.816v0c0.291-0.247 0.638-0.444 1.04-0.59v0c0.64-0.232 1.243-0.297 1.809-0.196v0c-0.103-0.284-0.094-0.466 0.026-0.547v0c0.055-0.035 0.115-0.064 0.181-0.088v0l0.66 1.821-0.376 0.136c-0.342-0.883-1.001-1.156-1.976-0.818v0c-0.732 0.265-1.107 0.643-1.123 1.135v0c-0.01 0.138 0.008 0.269 0.054 0.394v0c0.151 0.416 0.583 0.662 1.297 0.739v0c0.156 0.018 0.404 0.033 0.744 0.045v0c0.9 0.032 1.534 0.146 1.903 0.34v0c0.398 0.214 0.674 0.532 0.827 0.954v0c0.287 0.792 0.059 1.471-0.683 2.039v0c-0.285 0.223-0.616 0.402-0.992 0.538v0c-0.704 0.24-1.378 0.286-2.021 0.139v0c0.091 0.251 0.081 0.419-0.03 0.503v0c-0.057 0.028-0.122 0.055-0.194 0.082v0l-0.803-2.217 0.406-0.147c0.474 1.246 1.247 1.683 2.321 1.309z" fill="#000000" data-fill-palette-color="primary"></path><path d="M188.099 263.721l0.152 0.358 1.008-0.426 1.702 4.022c0.568 1.162 1.374 1.544 2.417 1.149v0c0.879-0.372 1.201-1.141 0.967-2.306v0c-0.005-0.013-0.01-0.023-0.012-0.029v0l-0.421 0.086c0.097 0.896-0.07 1.473-0.501 1.732v0c-0.519 0.197-0.935-0.058-1.248-0.763v0l-1.838-4.342 2.22-0.939-0.152-0.359-2.22 0.939-0.701-1.657-0.939 0.751 0.574 1.357z" fill="#000000" data-fill-palette-color="primary"></path><path d="M199.331 265.462v0l-1.006 0.483-1.336-2.779c-0.407-0.847-0.472-1.653-0.193-2.418v0c0.108-0.293 0.229-0.48 0.362-0.559v0c0.158-0.076 0.36-0.029 0.605 0.141v0c0.276 0.186 0.487 0.268 0.632 0.245v0c0.066-0.008 0.128-0.026 0.184-0.054v0c0.278-0.134 0.391-0.352 0.34-0.653v0c-0.008-0.066-0.026-0.128-0.054-0.185v0c-0.201-0.417-0.539-0.57-1.014-0.458v0c-0.104 0.027-0.197 0.06-0.28 0.099v0c-0.556 0.268-0.942 0.745-1.156 1.432v0c-0.096 0.319-0.136 0.649-0.119 0.991v0l-0.723-1.357-2.03 0.976 0.169 0.351 1.053-0.506 2.116 4.401c0.207 0.43 0.207 0.745-0.001 0.946v0c-0.118 0.111-0.335 0.243-0.651 0.395v0l0.169 0.351 3.452-1.66c-0.097-0.202-0.22-0.28-0.368-0.232v0c-0.044 0.006-0.094 0.022-0.151 0.05z" fill="#000000" data-fill-palette-color="primary"></path><path d="M205.359 262.337v0l-0.677 0.364-2.935-5.461-2.123 1.141 0.185 0.343 1.094-0.588 2.312 4.302c0.226 0.42 0.22 0.75-0.018 0.989v0c-0.116 0.11-0.329 0.248-0.638 0.415v0l0.185 0.343 3.142-1.689c-0.106-0.198-0.232-0.269-0.378-0.215v0c-0.05 0.011-0.1 0.03-0.149 0.056zM200.834 255.162v0c-0.173-0.321-0.435-0.475-0.786-0.462v0c-0.138 0.01-0.256 0.042-0.355 0.096v0c-0.321 0.173-0.47 0.444-0.447 0.813v0c0.01 0.122 0.045 0.239 0.104 0.351v0c0.179 0.334 0.452 0.486 0.819 0.456v0c0.125-0.019 0.237-0.056 0.336-0.109v0c0.315-0.169 0.458-0.437 0.428-0.804v0c-0.01-0.122-0.043-0.236-0.099-0.341z" fill="#000000" data-fill-palette-color="primary"></path><path d="M212.451 258.738v0c0.684-0.415 0.809-1.054 0.376-1.916v0c-0.021-0.061-0.046-0.116-0.075-0.163v0l-0.347 0.198c0.327 0.688 0.352 1.12 0.074 1.298v0c-0.239 0.12-0.499-0.038-0.781-0.475v0l-1.699-2.797c-0.765-1.259-1.799-1.543-3.102-0.85v0c-0.084 0.051-0.165 0.1-0.243 0.148v0c-0.99 0.601-1.512 1.234-1.567 1.9v0c-0.017 0.215 0.02 0.398 0.111 0.548v0c0.164 0.27 0.389 0.35 0.677 0.242v0c0.046-0.019 0.092-0.044 0.14-0.073v0c0.204-0.124 0.276-0.344 0.215-0.66v0c-0.071-0.4-0.103-0.643-0.098-0.729v0c0.033-0.324 0.227-0.593 0.581-0.808v0c0.86-0.449 1.566-0.253 2.116 0.586v0l0.503 0.827c-2.075 1.26-3.001 2.418-2.779 3.474v0c0.054 0.197 0.139 0.392 0.256 0.583v0c0.408 0.672 0.982 0.955 1.723 0.85v0c0.298-0.05 0.579-0.155 0.843-0.315v0c0.648-0.393 1.059-0.947 1.233-1.66v0c0.054-0.263 0.063-0.511 0.028-0.744v0c0.585 0.72 1.19 0.898 1.815 0.536zM209.493 259.808v0c-0.54 0.328-1.036 0.26-1.49-0.203v0c-0.1-0.111-0.196-0.242-0.287-0.392v0c-0.361-0.594-0.249-1.174 0.333-1.742v0c0.318-0.3 0.819-0.666 1.502-1.097v0l0.644 1.062c0.24 0.692 0.176 1.317-0.19 1.876v0c-0.149 0.214-0.32 0.379-0.512 0.496z" fill="#000000" data-fill-palette-color="primary"></path><path d="M217.247 254.909v0l-0.688 0.467-5.442-8.021-1.925 1.306 0.219 0.322 0.958-0.65 4.704 6.933c0.268 0.395 0.317 0.705 0.147 0.93v0c-0.1 0.127-0.295 0.289-0.585 0.486v0l0.218 0.322 2.935-1.991c-0.126-0.186-0.259-0.244-0.398-0.175v0c-0.043 0.012-0.09 0.036-0.143 0.071z" fill="#000000" data-fill-palette-color="primary"></path><path d="M220.622 248.887v0c0.785 0.98 1.729 1.424 2.832 1.332v0c0.685-0.054 1.309-0.307 1.874-0.759v0c0.843-0.675 1.242-1.48 1.195-2.414v0c-0.017-0.211-0.05-0.41-0.099-0.595v0l-0.406 0.15c0.213 0.872 0.004 1.615-0.628 2.229v0c-0.061 0.058-0.125 0.113-0.191 0.166v0c-0.575 0.461-1.252 0.535-2.031 0.225v0c-0.592-0.245-1.127-0.666-1.605-1.263v0c-0.847-1.057-1.133-1.987-0.86-2.791v0c0.121-0.331 0.322-0.608 0.601-0.832v0c0.438-0.351 0.837-0.392 1.197-0.122v0c0.065 0.047 0.165 0.133 0.301 0.258v0c0.304 0.278 0.554 0.406 0.751 0.383v0c0.117-0.022 0.225-0.068 0.322-0.137v0c0.287-0.203 0.372-0.456 0.256-0.758v0c-0.032-0.073-0.065-0.132-0.1-0.176v0c-0.333-0.416-0.868-0.545-1.605-0.387v0c-0.522 0.112-1.001 0.344-1.439 0.695v0c-1.079 0.864-1.479 1.908-1.2 3.132v0c0.131 0.579 0.409 1.133 0.834 1.664z" fill="#000000" data-fill-palette-color="primary"></path><path d="M227.435 243.13v0c-1.073-1.186-1.402-2.204-0.987-3.053v0c0.115-0.218 0.264-0.409 0.446-0.573v0c0.853-0.772 1.833-0.683 2.937 0.266v0c0.191 0.159 0.387 0.35 0.59 0.574v0c1.167 1.29 1.498 2.368 0.993 3.231v0c-0.102 0.159-0.226 0.304-0.372 0.436v0c-0.775 0.701-1.678 0.681-2.709-0.061v0c-0.302-0.219-0.601-0.492-0.898-0.82zM226.671 239.18v0c-0.739 0.668-1.125 1.476-1.157 2.423v0c-0.029 0.878 0.272 1.665 0.903 2.363v0c0.875 0.968 1.886 1.374 3.031 1.217v0c0.69-0.095 1.296-0.377 1.816-0.848v0c0.739-0.668 1.115-1.482 1.128-2.44v0c0.009-0.879-0.309-1.675-0.953-2.387v0c-0.875-0.968-1.879-1.361-3.011-1.179v0c-0.666 0.111-1.252 0.394-1.756 0.851z" fill="#000000" data-fill-palette-color="primary"></path><path d="M237.003 237.893v0l-0.481 0.516-2.45-2.28c-0.644-0.647-0.924-1.34-0.841-2.077v0c0.037-0.349 0.151-0.626 0.343-0.832v0c0.349-0.375 0.798-0.441 1.348-0.197v0c0.242 0.11 0.476 0.271 0.702 0.481v0l2.25 2.094c0.349 0.325 0.481 0.601 0.394 0.828v0c-0.064 0.141-0.216 0.34-0.455 0.597v0l0.285 0.265 2.273-2.442c-0.164-0.153-0.307-0.18-0.427-0.082v0c-0.039 0.021-0.08 0.055-0.123 0.102v0l-0.473 0.508-2.812-2.617-0.093-0.086c-0.445-0.634-0.581-1.26-0.41-1.877v0c0.071-0.231 0.174-0.418 0.308-0.562v0c0.359-0.385 0.812-0.471 1.361-0.258v0c0.262 0.1 0.513 0.262 0.755 0.487v0l2.249 2.094c0.349 0.325 0.481 0.601 0.395 0.828v0c-0.064 0.141-0.216 0.34-0.455 0.597v0l0.285 0.265 2.337-2.511c-0.164-0.153-0.307-0.18-0.427-0.082v0c-0.039 0.021-0.08 0.055-0.123 0.101v0l-0.538 0.578-2.812-2.617c-0.781-0.727-1.564-0.982-2.351-0.765v0c-0.344 0.102-0.64 0.286-0.888 0.553v0c-0.535 0.575-0.696 1.288-0.482 2.14v0c0.052 0.212 0.127 0.42 0.223 0.625v0c-0.73-0.421-1.397-0.481-2.002-0.182v0c-0.176 0.086-0.33 0.201-0.464 0.345v0c-0.507 0.544-0.694 1.209-0.562 1.993v0c0.045 0.281 0.134 0.556 0.268 0.825v0l-1.176-1.008-1.534 1.648 0.285 0.266 0.796-0.856 3.574 3.328c0.349 0.325 0.464 0.619 0.345 0.881v0c-0.069 0.146-0.223 0.348-0.463 0.605v0l0.286 0.265 2.323-2.496c-0.159-0.148-0.302-0.175-0.428-0.081v0c-0.044 0.026-0.082 0.058-0.115 0.093z" fill="#000000" data-fill-palette-color="primary"></path><path d="M248.6 229.119l-0.675 0.863-2.528-1.978c0.743-0.141 1.362-0.494 1.857-1.059v0c0.566-0.724 0.766-1.543 0.6-2.458v0c-0.159-0.89-0.644-1.653-1.457-2.288v0c-0.929-0.726-1.834-1.02-2.717-0.883v0c-0.607 0.104-1.112 0.413-1.514 0.927v0c-0.618 0.79-0.768 1.626-0.451 2.507v0c0.092 0.224 0.201 0.438 0.326 0.643v0l-1.372-0.98-1.381 1.766 0.307 0.24 0.72-0.92 6.168 4.824c0.376 0.294 0.518 0.574 0.425 0.84v0c-0.061 0.157-0.199 0.374-0.415 0.651v0l0.306 0.24 2.341-2.993c-0.177-0.138-0.321-0.153-0.433-0.045v0c-0.037 0.025-0.073 0.059-0.107 0.103zM242.35 223.016v0c0.553-0.707 1.348-0.807 2.386-0.299v0c0.309 0.152 0.631 0.36 0.968 0.623v0c1.194 0.934 1.7 1.846 1.519 2.739v0c-0.059 0.257-0.174 0.496-0.347 0.717v0c-0.488 0.625-1.154 0.798-1.998 0.522v0c-0.432-0.142-0.875-0.39-1.328-0.745v0c-1.061-0.83-1.582-1.678-1.563-2.546v0c0.013-0.382 0.135-0.719 0.363-1.011z" fill="#000000" data-fill-palette-color="primary"></path><path d="M248.446 219.479v0c-1.324-0.898-1.885-1.808-1.683-2.731v0c0.06-0.239 0.159-0.46 0.297-0.663v0c0.646-0.952 1.618-1.098 2.917-0.438v0c0.223 0.109 0.459 0.248 0.709 0.417v0c1.44 0.977 2.017 1.945 1.732 2.904v0c-0.062 0.179-0.148 0.349-0.258 0.511v0c-0.587 0.865-1.469 1.06-2.647 0.584v0c-0.345-0.141-0.701-0.335-1.067-0.584zM246.768 215.823v0c-0.559 0.825-0.742 1.701-0.55 2.628v0c0.18 0.86 0.659 1.553 1.438 2.081v0c1.08 0.733 2.158 0.887 3.233 0.464v0c0.648-0.256 1.169-0.674 1.563-1.255v0c0.559-0.825 0.732-1.704 0.517-2.637v0c-0.2-0.856-0.697-1.554-1.492-2.094v0c-1.08-0.733-2.148-0.876-3.205-0.431v0c-0.621 0.266-1.122 0.68-1.504 1.244z" fill="#000000" data-fill-palette-color="primary"></path><path d="M256.522 212.185v0l-0.353 0.61-2.896-1.677c-0.814-0.512-1.243-1.158-1.287-1.937v0c-0.015-0.325 0.052-0.615 0.199-0.869v0c0.313-0.54 0.782-0.763 1.409-0.669v0c0.252 0.041 0.509 0.136 0.77 0.288v0l2.659 1.54c0.413 0.239 0.592 0.497 0.538 0.773v0c-0.035 0.158-0.14 0.389-0.316 0.693v0l0.337 0.195 1.745-3.015c-0.194-0.112-0.339-0.107-0.435 0.016v0c-0.033 0.029-0.066 0.071-0.097 0.126v0l-0.385 0.665-3.325-1.925c-0.899-0.52-1.719-0.581-2.459-0.183v0c-0.335 0.187-0.6 0.447-0.793 0.781v0c-0.383 0.662-0.434 1.358-0.152 2.089v0c0.112 0.283 0.264 0.546 0.457 0.787v0l-1.371-0.72-1.128 1.949 0.337 0.195 0.585-1.011 4.226 2.447c0.413 0.239 0.59 0.5 0.533 0.782v0c-0.035 0.158-0.14 0.389-0.316 0.693v0l0.337 0.195 1.708-2.951c-0.194-0.112-0.339-0.107-0.435 0.016v0c-0.033 0.029-0.064 0.068-0.092 0.117z" fill="#000000" data-fill-palette-color="primary"></path><path d="M256.013 200.536v0c0.32-0.648 0.807-0.943 1.46-0.887v0c0.213 0.012 0.421 0.067 0.622 0.167v0c0.465 0.23 0.638 0.593 0.518 1.089v0c-0.071 0.254-0.215 0.594-0.433 1.019v0l-0.765 1.453c-1.044-0.579-1.57-1.273-1.577-2.083v0c-0.001-0.267 0.057-0.52 0.175-0.758zM261.576 200.28v0l-0.3 0.274c0.543 0.675 0.683 1.398 0.419 2.168v0c-0.04 0.097-0.081 0.187-0.121 0.269v0c-0.482 0.975-1.364 1.302-2.646 0.982v0c-0.355-0.089-0.731-0.224-1.127-0.405v0l0.854-1.656c0.579-1.123 0.831-1.902 0.757-2.338v0c-0.064-0.345-0.266-0.601-0.606-0.769v0c-0.629-0.311-1.286-0.241-1.971 0.211v0c-0.497 0.325-0.892 0.784-1.185 1.376v0c-0.572 1.157-0.501 2.225 0.212 3.204v0c0.376 0.507 0.878 0.915 1.507 1.226v0c1.151 0.569 2.207 0.578 3.168 0.028v0c0.57-0.329 1.01-0.808 1.321-1.436v0c0.498-1.006 0.501-1.924 0.011-2.754v0c-0.095-0.141-0.193-0.267-0.293-0.38z" fill="#000000" data-fill-palette-color="primary"></path><path d="M264.579 195.984v0l-0.269 0.652-3.094-1.275c-0.875-0.399-1.386-0.982-1.533-1.748v0c-0.058-0.32-0.031-0.616 0.081-0.889v0c0.238-0.577 0.674-0.861 1.307-0.85v0c0.255 0.007 0.522 0.067 0.802 0.183v0l2.841 1.171c0.441 0.182 0.653 0.413 0.636 0.695v0c-0.013 0.161-0.087 0.404-0.221 0.728v0l0.36 0.149 1.328-3.221c-0.208-0.086-0.351-0.061-0.429 0.074v0c-0.029 0.034-0.056 0.08-0.08 0.138v0l-0.293 0.71-3.551-1.464c-0.96-0.396-1.781-0.347-2.462 0.146v0c-0.307 0.23-0.535 0.523-0.682 0.88v0c-0.292 0.707-0.249 1.404 0.128 2.091v0c0.148 0.266 0.334 0.506 0.558 0.719v0l-1.455-0.532-0.858 2.083 0.36 0.148 0.445-1.08 4.515 1.862c0.441 0.182 0.652 0.417 0.631 0.704v0c-0.013 0.161-0.087 0.404-0.22 0.729v0l0.36 0.148 1.3-3.152c-0.208-0.086-0.351-0.061-0.429 0.073v0c-0.029 0.034-0.054 0.076-0.076 0.128z" fill="#000000" data-fill-palette-color="primary"></path><path d="M261.172 187.789l0.368 0.126 0.356-1.035 4.131 1.417c1.244 0.353 2.067 0.008 2.469-1.033v0c0.31-0.903-0.048-1.656-1.072-2.259v0c-0.013-0.005-0.023-0.008-0.03-0.011v0l-0.216 0.371c0.732 0.526 1.05 1.035 0.955 1.53v0c-0.2 0.517-0.667 0.658-1.402 0.42v0l-4.46-1.53 0.783-2.28-0.369-0.126-0.782 2.279-1.702-0.584-0.067 1.201 1.393 0.478z" fill="#000000" data-fill-palette-color="primary"></path><path d="M269.816 181.583v0c0.202-0.687 0.128-1.209-0.22-1.568v0c-0.122-0.131-0.275-0.223-0.456-0.276v0c-0.411-0.121-0.856 0.078-1.338 0.595v0c-0.105 0.108-0.265 0.292-0.479 0.55v0c-0.576 0.716-1.051 1.165-1.427 1.347v0c-0.413 0.186-0.838 0.215-1.275 0.087v0c-0.687-0.202-1.057-0.72-1.113-1.555v0c-0.027-0.381 0.019-0.777 0.14-1.188v0c0.192-0.653 0.496-1.178 0.912-1.575v0c-0.29-0.085-0.431-0.2-0.425-0.344v0c0.004-0.065 0.016-0.13 0.036-0.198v0l1.858 0.546-0.112 0.383c-0.915-0.246-1.524 0.123-1.829 1.109v0c-0.219 0.747-0.136 1.273 0.251 1.576v0c0.105 0.089 0.222 0.153 0.35 0.191v0c0.424 0.124 0.879-0.079 1.363-0.609v0c0.107-0.115 0.265-0.306 0.476-0.574v0c0.558-0.706 1.025-1.151 1.4-1.333v0c0.408-0.195 0.828-0.229 1.258-0.102v0c0.808 0.237 1.221 0.823 1.24 1.757v0c0.011 0.362-0.04 0.734-0.153 1.117v0c-0.223 0.71-0.584 1.28-1.083 1.712v0c0.256 0.075 0.385 0.182 0.388 0.322v0c-0.011 0.063-0.027 0.131-0.049 0.205v0l-2.262-0.664 0.121-0.414c1.285 0.355 2.094-0.011 2.428-1.097z" fill="#000000" data-fill-palette-color="primary"></path></g></svg></g></svg></g></svg></g></svg></g><defs></defs></svg><rect width="279.72" height="279.72" fill="none" stroke="none" visibility="hidden"></rect></g></svg></g></svg>